{"title":"The.Comic.Strip.Complete.Collection.D1.DVDRip.x264.Iou1","uid":8544565,"size":1454074973,"categoryP":"video","categoryS":"tv_shows","magnet":"?xt=urn:btih:4e10683415764c3406a313049c1efda843bb21f0&amp;dn=The.Comic.Strip.Complete.Collection.D1.DVDRip.x264.Iou1&amp;tr=udp%3A%2F%2Ftracker.openbittorrent.com%3A80&amp;tr=udp%3A%2F%2Fopen.demonii.com%3A1337&amp;tr=udp%3A%2F%2Ftracker.coppersurfer.tk%3A6969&amp;tr=udp%3A%2F%2Fexodus.desync.com%3A6969","seeders":1,"leechers":0,"uploader":"jaybee211","files":-1,"time":1370488789,"description":"Disc 1 Of 9\n\nFive Go Mad In Dorset\nWar\nThe Beat Generation\nBad News Tour\nSummer School\nFive Go Mad On Mescalin\n\nNote. Video/Audio Bitrate And Resolution Height varies in all 6 clips\n\nFormat                                   : MPEG-4\nFormat profile                           : Base Media / Version 2\nCodec ID                                 : mp42\nFile size                                : 1.35 GiB\nDuration                                 : 2h 59mn 46s\nOverall bit rate mode                    : Variable\nOverall bit rate                         : 1 073 Kbps\n\nVideo\nID                                       : 1\nFormat                                   : AVC\nFormat/Info                              : Advanced Video Codec\nFormat profile                           : &lt;a class=&quot;__cf_email__&quot; href=&quot;/cdn-cgi/l/email-protection&quot; data-cfemail=&quot;9fd2fef6f1dfd3acb1af&quot;&gt;[email&amp;#160;protected]&lt;/a&gt;&lt;script cf-hash='f9e31' type=&quot;text/javascript&quot;&gt;\n/* &lt;![CDATA[ */!function(){try{var t=&quot;currentScript&quot;in document?document.currentScript:function(){for(var t=document.getElementsByTagName(&quot;script&quot;),e=t.length;e--;)if(t[e].getAttribute(&quot;cf-hash&quot;))return t[e]}();if(t&amp;&amp;t.previousSibling){var e,r,n,i,c=t.previousSibling,a=c.getAttribute(&quot;data-cfemail&quot;);if(a){for(e=&quot;&quot;,r=parseInt(a.substr(0,2),16),n=2;a.length-n;n+=2)i=parseInt(a.substr(n,2),16)^r,e+=String.fromCharCode(i);e=document.createTextNode(e),c.parentNode.replaceChild(e,c)}}}catch(u){}}();/* ]]&gt; */&lt;/script&gt;\nFormat settings, CABAC                   : Yes\nFormat settings, ReFrames                : 1 frame\nCodec ID                                 : avc1\nCodec ID/Info                            : Advanced Video Coding\nDuration                                 : 2h 59mn 46s\nBit rate mode                            : Variable\nBit rate                                 : 999 Kbps\nWidth                                    : 720 pixels\nHeight                                   : 556 pixels\nDisplay aspect ratio                     : 1.295\nFrame rate mode                          : Constant\nFrame rate                               : 25.000 fps\nColor space                              : YUV\nChroma subsampling                       : 4:2:0\nBit depth                                : 8 bits\nScan type                                : Progressive\nBits/(Pixel*Frame)                       : 0.100\nStream size                              : 1.25 GiB (93%)\nWriting library                          : x264 core\n\nAudio\nID                                       : 2\nFormat                                   : AAC\nFormat/Info                              : Advanced Audio Codec\nFormat profile                           : LC\nCodec ID                                 : 40\nDuration                                 : 2h 59mn 46s\nBit rate mode                            : Variable\nBit rate                                 : 70.1 Kbps\nMaximum bit rate                         : 84.6 Kbps\nChannel(s)                               : 2 channels\nChannel positions                        : Front: L R\nSampling rate                            : 48.0 KHz\nCompression mode                         : Lossy\nStream size                              : 94.5 MiB (7%)\nLanguage                                 : English\nSubtitles                                : None\n\nIMDB. &lt;a href=&quot; http://www.imdb.com/title/tt0083402/&quot; rel=&quot;nofollow&quot; target=&quot;_NEW&quot;&gt; http://www.imdb.com/title/tt0083402/&lt;/a&gt;\n\nScreens. &lt;a href=&quot; http://bayimg.com/kAnImAAeB&quot; rel=&quot;nofollow&quot; target=&quot;_NEW&quot;&gt; http://bayimg.com/kAnImAAeB&lt;/a&gt;\n\n         &lt;a href=&quot; http://bayimg.com/KanIOAaEB&quot; rel=&quot;nofollow&quot; target=&quot;_NEW&quot;&gt; http://bayimg.com/KanIOAaEB&lt;/a&gt;\n\n         &lt;a href=&quot; http://bayimg.com/KAniPAAEb&quot; rel=&quot;nofollow&quot; target=&quot;_NEW&quot;&gt; http://bayimg.com/KAniPAAEb&lt;/a&gt;\n\n         &lt;a href=&quot; http://bayimg.com/LAniaaAEb&quot; rel=&quot;nofollow&quot; target=&quot;_NEW&quot;&gt; http://bayimg.com/LAniaaAEb&lt;/a&gt;\n\n         &lt;a href=&quot; http://bayimg.com/lANiCaAeB&quot; rel=&quot;nofollow&quot; target=&quot;_NEW&quot;&gt; http://bayimg.com/lANiCaAeB&lt;/a&gt;\n\n         &lt;a href=&quot; http://bayimg.com/LaNiDAAEB&quot; rel=&quot;nofollow&quot; target=&quot;_NEW&quot;&gt; http://bayimg.com/LaNiDAAEB&lt;/a&gt;\n\nEnjoy.","torrent":{"xt":"urn:btih:4e10683415764c3406a313049c1efda843bb21f0","amp;dn":"The.Comic.Strip.Complete.Collection.D1.DVDRip.x264.Iou1","amp;tr":["udp%3A%2F%2Ftracker.openbittorrent.com%3A80","udp%3A%2F%2Fopen.demonii.com%3A1337","udp%3A%2F%2Ftracker.coppersurfer.tk%3A6969","udp%3A%2F%2Fexodus.desync.com%3A6969"],"infoHash":"4e10683415764c3406a313049c1efda843bb21f0","infoHashBuffer":{"type":"Buffer","data":[78,16,104,52,21,118,76,52,6,163,19,4,156,30,253,168,67,187,33,240]},"announce":[],"urlList":[]}}